<svg id="レイヤー_1" data-name="レイヤー 1" xmlns="http://www.w3.org/2000/svg" viewBox="0 0 245.98 134.06"><defs><style>.cls-1{fill:#fff}</style></defs><path class="cls-1" d="M0 102.28h4.88l4.79 22.41h.08l5.93-22.41H19l5.9 22.41h.1l4.82-22.41h4.88l-7.6 31.52h-3.88l-5.82-22.73h-.08l-5.85 22.73H7.62zm48 0h11.83q4.5 0 6.76 2.33a8.33 8.33 0 012.28 6.12 7.45 7.45 0 01-.9 3.72A6 6 0 0166.6 116a9.87 9.87 0 01-2.22 1.45v.09a6.17 6.17 0 013.78 2.7 9 9 0 011.2 4.56 8.76 8.76 0 01-2.47 6.46 8 8 0 01-6 2.49H48zm4.62 4.24v9.06h6.69a4.7 4.7 0 003.69-1.37 4.39 4.39 0 001.25-3.21 4.62 4.62 0 00-1.25-3.2 5.11 5.11 0 00-3.73-1.28zm0 13.3v9.5h7.14a4.8 4.8 0 003.78-1.45 4.88 4.88 0 001.2-3.29 4.94 4.94 0 00-1.2-3.34 4.89 4.89 0 00-3.78-1.41zm55.04.18H95.55v13.8h-4.62v-31.52h4.62v13.51h12.11v-13.51h4.62v31.52h-4.62zm17.56-2a54.42 54.42 0 01.31-7.37 8.9 8.9 0 011-3 10.74 10.74 0 013.56-3.88 10.27 10.27 0 016-1.77 10.48 10.48 0 019.54 5.66 7.39 7.39 0 011.07 3 63.08 63.08 0 01.3 7.36 63.19 63.19 0 01-.27 7.31 7.47 7.47 0 01-1.07 3 10.14 10.14 0 01-3.47 3.85 10.65 10.65 0 01-6.07 1.82 11 11 0 01-9.56-5.67q-.33-.71-.61-1.36a9.14 9.14 0 01-.42-1.69 54.31 54.31 0 01-.31-7.26zm4.62 0a38 38 0 00.34 6.3 5.33 5.33 0 001.2 2.67 5.45 5.45 0 001.93 1.58 5.3 5.3 0 002.81.71 5.57 5.57 0 002.87-.71 5.16 5.16 0 001.85-1.58 5.64 5.64 0 001.24-2.67 40.68 40.68 0 00.31-6.3 41.63 41.63 0 00-.31-6.35 6.62 6.62 0 00-3.08-4.25 6.57 6.57 0 00-2.87-.67 6.24 6.24 0 00-2.81.67 5.88 5.88 0 00-1.93 1.63 5.29 5.29 0 00-1.2 2.62 38.83 38.83 0 00-.35 6.35zm29.5-15.72H164v20.34a6.61 6.61 0 001.8 4.91 5.89 5.89 0 004.42 1.77 6 6 0 004.47-1.77 6.7 6.7 0 001.76-4.91v-20.34H181v20.84a10.94 10.94 0 01-18.47 7.88 10.36 10.36 0 01-3.19-7.88zm35.47 23.88a13.14 13.14 0 008.68 3.14q6-.09 6-4.39 0-3.53-4-4.24l-4-.58a9.86 9.86 0 01-6-3 8.53 8.53 0 01-2.12-5.84 8.78 8.78 0 012.66-6.67q2.57-2.51 7.3-2.55a16.79 16.79 0 019.89 3.26l-2.58 3.92a13.69 13.69 0 00-7.56-2.43 5.64 5.64 0 00-3.56 1.1 4.16 4.16 0 00-1.52 3.42 3.53 3.53 0 001 2.47 5.8 5.8 0 003.29 1.56q1.25.22 3.43.5a9.41 9.41 0 016.35 3.18 9.13 9.13 0 012 5.89q-.23 9-10.71 9.17a17 17 0 01-11.66-4.3zm31.67-23.88H246v4.5h-14.9v9h12.7V120h-12.7v9.28H246v4.5h-19.52zM54.51 22.88h-4.63V78.7h9.2V22.88h-4.57z"/><path class="cls-1" d="M125.31 4.34l-.02-.05L123.72 0 49.88 22.88l1.57 4.29.02.05 1.56 4.29 73.84-22.87-1.56-4.3zm67.61 18.54h4.62V78.7h-9.19V22.88h4.57z"/><path class="cls-1" d="M122.12 4.34l.02-.05L123.7 0l73.84 22.88-1.56 4.29-.02.05-1.56 4.29-73.84-22.87 1.56-4.3z"/></svg>