<svg id="レイヤー_1" data-name="レイヤー 1" xmlns="http://www.w3.org/2000/svg" viewBox="0 0 351.24 44.03"><defs><style>.cls-1{fill:#fff}</style></defs><path class="cls-1" d="M109.25 12.25h4.88l4.79 22.41h.08l5.93-22.41h3.35l5.9 22.41h.08l4.82-22.41H144l-7.62 31.52h-3.87L126.65 21h-.08l-5.84 22.73h-3.85zm48 0h11.83q4.5 0 6.76 2.33a8.33 8.33 0 012.28 6.12 7.44 7.44 0 01-.9 3.72 6 6 0 01-1.38 1.6 9.87 9.87 0 01-2.22 1.45v.09a6.17 6.17 0 013.78 2.7 9 9 0 011.2 4.56 8.76 8.76 0 01-2.47 6.46 8 8 0 01-6 2.49h-12.88zm4.62 4.24v9.06h6.69a4.7 4.7 0 003.73-1.37 4.39 4.39 0 001.22-3.18 4.62 4.62 0 00-1.22-3.24 5.11 5.11 0 00-3.73-1.28zm0 13.3v9.5H169a4.8 4.8 0 003.78-1.45 4.88 4.88 0 001.2-3.29 4.94 4.94 0 00-1.2-3.34 4.89 4.89 0 00-3.78-1.43zm55.05.21H204.8v13.77h-4.62V12.25h4.62v13.52h12.11V12.25h4.62v31.52h-4.62zm17.56-2a54.42 54.42 0 01.31-7.37 8.9 8.9 0 011-3 10.74 10.74 0 013.56-3.88 10.27 10.27 0 016-1.77 10.48 10.48 0 019.54 5.66 7.39 7.39 0 011.07 3 63.07 63.07 0 01.27 7.35 63.19 63.19 0 01-.27 7.31 7.47 7.47 0 01-1.07 3 10.14 10.14 0 01-3.47 3.85 10.65 10.65 0 01-6.04 1.85 11 11 0 01-9.56-5.67q-.33-.71-.61-1.36a9.14 9.14 0 01-.42-1.69 54.31 54.31 0 01-.31-7.28zm4.62 0a37.94 37.94 0 00.34 6.3 5.33 5.33 0 001.2 2.66 5.45 5.45 0 001.93 1.58 5.3 5.3 0 002.81.71 5.57 5.57 0 002.87-.71 5.16 5.16 0 001.84-1.54 5.63 5.63 0 001.24-2.66 40.67 40.67 0 00.31-6.3 41.62 41.62 0 00-.31-6.35 5.6 5.6 0 00-1.24-2.69 5.56 5.56 0 00-1.85-1.62 6.56 6.56 0 00-2.87-.67 6.24 6.24 0 00-2.81.67 5.88 5.88 0 00-1.93 1.62 5.29 5.29 0 00-1.2 2.62 38.82 38.82 0 00-.33 6.38zm29.49-15.75h4.62v20.34A6.61 6.61 0 00275 37.5a5.89 5.89 0 004.42 1.77 6 6 0 004.47-1.77 6.7 6.7 0 001.76-4.91V12.25h4.62v20.84A10.94 10.94 0 01271.78 41a10.36 10.36 0 01-3.19-7.88zm35.48 23.89a13.14 13.14 0 008.68 3.14q6-.08 6-4.39 0-3.53-4-4.24l-4-.58a9.86 9.86 0 01-6-3 8.53 8.53 0 01-2.12-5.84 8.78 8.78 0 012.66-6.67q2.57-2.51 7.3-2.55a16.79 16.79 0 019.89 3.26l-2.58 3.92a13.69 13.69 0 00-7.56-2.43 5.64 5.64 0 00-3.56 1.1 4.16 4.16 0 00-1.53 3.42 3.53 3.53 0 001 2.47 5.8 5.8 0 003.29 1.56q1.25.22 3.43.5a9.41 9.41 0 016.4 3.19 9.13 9.13 0 012 5.89q-.23 9-10.71 9.17A17 17 0 01301 39.73zm31.66-23.89h19.51v4.5h-14.89v9h12.7V30h-12.7v9.28h14.88v4.5h-19.5z" transform="translate(-4)"/><path class="cls-1" d="M2.99 13.02H0v30.85h5.95V13.02H2.99zm75.74 0h3.02v30.85h-6V13.02h2.98z"/><path class="cls-1" d="M41.79 2.85l-.02-.03L40.88 0 0 13.02l.9 2.82.01.03.9 2.82L42.68 5.67l-.89-2.82z"/><path class="cls-1" d="M39.97 2.85l.01-.03.9-2.82 40.87 13.02-.89 2.82-.02.03-.89 2.82L39.07 5.67l.9-2.82z"/></svg>